<svg width="57" height="63" viewBox="0 0 57 63" fill="none" xmlns="http://www.w3.org/2000/svg">
<path d="M4.47418 62.1605L4.4731 62.1611C4.0699 62.388 3.61658 62.5 3.16667 62.5C2.70377 62.5 2.23902 62.3784 1.82083 62.1387C0.999391 61.6606 0.5 60.792 0.5 59.85V3.15011C0.5 2.20785 0.999665 1.33903 1.82151 0.861045C2.63854 0.388484 3.64753 0.378165 4.47446 0.839812C4.4745 0.839836 4.47454 0.839859 4.47459 0.839883L55.1394 29.1888C55.1395 29.1889 55.1397 29.1889 55.1398 29.189C55.9794 29.6626 56.5 30.5434 56.5 31.5001C56.5 32.4566 55.9796 33.3372 55.1402 33.8109C55.1399 33.811 55.1397 33.8112 55.1394 33.8113L4.47418 62.1605Z" fill="#E0E7F3" stroke="#F9E6C4"/>
</svg>
