<svg width="57" height="63" viewBox="0 0 57 63" fill="none" xmlns="http://www.w3.org/2000/svg">
<path d="M52.5258 62.1605L52.5269 62.1611C52.9301 62.388 53.3834 62.5 53.8333 62.5C54.2962 62.5 54.761 62.3784 55.1792 62.1387C56.0006 61.6606 56.5 60.792 56.5 59.85V3.15011C56.5 2.20785 56.0003 1.33903 55.1785 0.861045C54.3615 0.388484 53.3525 0.378165 52.5255 0.839812C52.5255 0.839836 52.5255 0.839859 52.5254 0.839883L1.86059 29.1888C1.86047 29.1889 1.86034 29.1889 1.86022 29.189C1.0206 29.6626 0.5 30.5434 0.5 31.5001C0.5 32.4566 1.02044 33.3372 1.85981 33.8109C1.86007 33.811 1.86033 33.8112 1.86059 33.8113L52.5258 62.1605Z" fill="#E0E7F3" stroke="#F9E6C4"/>
</svg>
