<svg width="23" height="23" viewBox="0 0 23 23" fill="none" xmlns="http://www.w3.org/2000/svg">
<g clip-path="url(#clip0)">
<path d="M18.2491 18.7511C17.7559 18.8803 17.431 18.8106 17.2875 18.7609C17.2403 18.745 17.2154 18.6875 17.2264 18.6382C18.0653 15.1551 13.9207 10.2417 13.3704 9.60831C13.3374 9.57081 13.3011 9.50111 13.2921 9.45179C13.2208 9.07271 13.041 7.56128 14.4579 6.64252C16.2188 5.5012 16.8102 4.53067 16.9541 4.24983C16.9773 4.20499 16.9941 4.12713 16.9969 4.077C17.0283 3.45946 17.2965 -0.107562 19.227 0.00249316C21.6172 0.139044 21.5956 7.41291 21.5956 7.41291C21.9311 13.9086 18.8524 18.0728 18.393 18.6557C18.362 18.6948 18.2976 18.7389 18.2491 18.7511Z" fill="#C6B18D"/>
<path d="M16.5506 19.0498C16.5726 18.4934 16.3782 15.5391 9.81721 15.0907C6.79761 14.8836 4.89528 14.968 3.6973 15.18C3.64879 15.1885 3.58194 15.1657 3.55097 15.1266C3.47759 15.034 3.40912 14.9354 3.3492 14.831C3.11319 14.4222 2.79933 13.5923 3.35694 12.621C4.05192 11.4116 3.59906 10.3167 3.55708 10.2222C2.95626 9.06861 2.79973 8.09767 3.08955 7.33707C3.37936 6.57524 4.01687 6.32619 4.04499 6.31559C4.04499 6.31559 4.05274 6.31233 4.06089 6.30907C4.06986 6.3054 4.08616 6.30132 4.09513 6.3001L4.11266 6.29765C4.42204 6.24955 4.73916 6.2251 5.05587 6.2251C9.2331 6.2251 13.2823 10.4256 15.4806 14.0219C16.8306 16.2304 16.972 17.869 16.8636 18.8379C16.8579 18.8876 16.8192 18.9504 16.7776 18.9793L16.6182 19.0882C16.5763 19.1175 16.5481 19.1 16.5506 19.0498Z" fill="#C6B18D"/>
<path d="M9.39599 15.6308C9.44613 15.6341 9.52683 15.6394 9.57697 15.6426C16.0491 16.1122 16.2415 19.0425 16.2194 19.5961C16.2174 19.6462 16.195 19.7228 16.1713 19.7669C14.2894 23.2833 4.85314 20.8258 3.53573 20.1288C2.56887 19.6185 2.64876 18.7136 2.70053 18.4287C2.7095 18.3793 2.68545 18.3198 2.64265 18.2942C2.34631 18.1132 1.31016 17.4398 1.36193 16.9221C1.42266 16.3209 2.23096 15.1506 9.39599 15.6308Z" fill="#C6B18D"/>
<path d="M17.7067 19.3063C17.7789 19.3116 17.8477 19.3254 17.913 19.3474C17.9602 19.3629 18.0251 19.3511 18.0613 19.3169C18.5574 18.8322 19.7949 17.8201 21.5252 17.7806C21.5872 17.7789 21.6394 17.8287 21.6406 17.8914C21.6422 17.9534 21.5925 18.0056 21.5297 18.0068C19.9417 18.0427 18.7624 18.9683 18.2619 19.4408C18.2252 19.4758 18.2276 19.53 18.2627 19.5659C18.2961 19.6001 18.3267 19.6372 18.354 19.6764C18.3825 19.7179 18.4376 19.7359 18.4828 19.7139C18.9675 19.4836 20.1031 19.0543 21.2436 19.4208C21.3031 19.44 21.3357 19.5035 21.3165 19.5635C21.2974 19.623 21.2334 19.656 21.1739 19.6364C20.1088 19.294 19.0119 19.7155 18.5655 19.9275C18.5199 19.9491 18.4938 20.0061 18.4999 20.0559C18.5069 20.1113 18.5085 20.1667 18.5044 20.2242C18.4718 20.6978 18.0605 21.0553 17.5873 21.0219C17.1136 20.9889 16.7562 20.5776 16.7896 20.1048C16.8226 19.6307 17.2335 19.2736 17.7067 19.3063Z" fill="#C6B18D"/>
<path d="M11.3972 22.8341C11.6602 22.6454 11.7657 22.4449 11.8073 22.334C11.8244 22.2875 11.8717 22.2394 11.9202 22.2292C12.2708 22.1579 13.5931 21.8754 14.6969 21.4552C15.7987 21.0358 16.4839 19.9409 16.6575 19.6364C16.682 19.5932 16.6909 19.5965 16.6811 19.6454C16.5911 20.0864 16.6852 20.4549 16.7398 20.6143C16.7561 20.6612 16.7533 20.7345 16.728 20.7773C15.3633 23.1496 13.0204 22.5529 12.3307 22.775C11.6345 23.0004 11.0072 23.115 11.3972 22.8341Z" fill="#C6B18D"/>
</g>
<defs>
<clipPath id="clip0">
<rect width="23" height="23" fill="white" transform="matrix(-1 0 0 1 23 0)"/>
</clipPath>
</defs>
</svg>
