<svg width="58" height="58" viewBox="0 0 58 58" fill="none" xmlns="http://www.w3.org/2000/svg">
<rect x="0.25" y="0.25" width="57.5" height="57.5" rx="28.75" fill="#FFFAF2" stroke="#D49E3B" stroke-width="0.5"/>
<path d="M21.4 42.4C19.86 42.4 18.6 43.66 18.6 45.2C18.6 46.74 19.86 48 21.4 48C22.94 48 24.2 46.74 24.2 45.2C24.2 43.66 22.94 42.4 21.4 42.4ZM13 20V22.8H15.8L20.84 33.44L18.88 36.8C18.74 37.22 18.6 37.78 18.6 38.2C18.6 39.74 19.86 41 21.4 41H38.2V38.2H21.96C21.82 38.2 21.68 38.06 21.68 37.92V37.7799L22.94 35.3999H33.3C34.42 35.3999 35.26 34.8399 35.68 33.9999L40.72 24.9C41 24.62 41 24.48 41 24.2C41 23.36 40.44 22.8 39.6 22.8H18.88L17.62 20H13ZM35.4 42.4C33.86 42.4 32.6 43.66 32.6 45.2C32.6 46.74 33.86 48 35.4 48C36.94 48 38.2 46.74 38.2 45.2C38.2 43.66 36.94 42.4 35.4 42.4Z" fill="#DDB060"/>
<path d="M40.6538 21.6538H39.6538V22.6538V24.3846C39.6538 24.4693 39.5846 24.5385 39.5 24.5385C39.4154 24.5385 39.3462 24.4693 39.3462 24.3846V22.6538V21.6538H38.3462H36.6154C36.5307 21.6538 36.4615 21.5846 36.4615 21.5C36.4615 21.4154 36.5307 21.3462 36.6154 21.3462H38.3462H39.3462V20.3462V18.6154C39.3462 18.5307 39.4154 18.4615 39.5 18.4615C39.5846 18.4615 39.6538 18.5307 39.6538 18.6154V20.3462V21.3462H40.6538H42.3846C42.4693 21.3462 42.5385 21.4154 42.5385 21.5C42.5385 21.5846 42.4693 21.6538 42.3846 21.6538H40.6538ZM39.5 13C34.8123 13 31 16.8123 31 21.5C31 26.1877 34.8123 30 39.5 30C44.1877 30 48 26.1877 48 21.5C48 16.8123 44.1877 13 39.5 13Z" fill="#DDB060" stroke="#FFFAF2" stroke-width="2"/>
</svg>
