<svg width="79" height="69" viewBox="0 0 79 69" fill="none" xmlns="http://www.w3.org/2000/svg">
<path d="M32.8926 0.285137C33.085 0.0950458 33.3735 0 33.7582 0C34.3353 0 34.8162 0.380166 35.2009 1.1405C35.5856 1.90083 35.4894 2.47108 34.9123 2.85125C21.0628 13.686 13.1763 25.0909 11.2527 37.0661C11.0604 38.2066 10.9642 39.8223 10.9642 41.9132C10.9642 43.8141 11.1566 45.1446 11.5413 45.905C13.0801 44.1942 15.5807 43.3388 19.0431 43.3388C23.2749 43.3388 26.4487 44.7645 28.5646 47.6157C30.8729 50.4669 31.8347 53.6983 31.45 57.3099C31.0653 60.9215 29.6226 63.7727 27.122 65.8636C24.6214 67.9545 21.159 69 16.7348 69C11.5413 69 7.40565 67.2893 4.32798 63.8678C1.44266 60.4463 0 55.7893 0 49.8967C0 47.2355 0.288532 44.4793 0.865595 41.6281C2.21208 34.405 5.67446 27.2769 11.2527 20.2438C17.0234 13.0207 24.2367 6.36778 32.8926 0.285137ZM76.4609 0.285137C76.6533 0.0950458 76.9418 0 77.3265 0C77.9036 0 78.3845 0.380166 78.7692 1.1405C79.1539 1.90083 79.0577 2.47108 78.4806 2.85125C64.6311 13.686 56.7446 25.0909 54.821 37.0661C54.6287 38.2066 54.5325 39.8223 54.5325 41.9132C54.5325 43.8141 54.7249 45.1446 55.1096 45.905C56.6484 44.1942 59.149 43.3388 62.6114 43.3388C66.8432 43.3388 70.017 44.7645 72.1329 47.6157C74.4412 50.4669 75.403 53.6983 75.0183 57.3099C74.6336 60.9215 73.1909 63.7727 70.6903 65.8636C68.1897 67.9545 64.7273 69 60.3031 69C55.1096 69 50.9739 67.2893 47.8963 63.8678C45.011 60.4463 43.5683 55.7893 43.5683 49.8967C43.5683 47.2355 43.8568 44.4793 44.4339 41.6281C45.7804 34.405 49.2428 27.2769 54.821 20.2438C60.5917 13.0207 67.805 6.36778 76.4609 0.285137Z" fill="#EDEEF0"/>
</svg>
